<svg xmlns="http://www.w3.org/2000/svg" width="880" height="470" viewBox="0 0 880 470" font-family="Georgia, serif">
<rect width="880" height="470" fill="#faf7f0"/>
<text x="40" y="42" font-size="21" fill="#2b2b2b" font-weight="bold">Voynichese shows a dominant one-dimensional register gradient</text>
<text x="40" y="66" font-size="13" fill="#5a5a5a">Register coordinate of each section (0 = Herbal-A pole, 1 = Biological-B pole). 84% of between-section variance lies on this one axis (r = 0.938 at folio resolution).</text>
<line x1="295.7" y1="92" x2="295.7" y2="332" stroke="#9c5b2e" stroke-width="1.4" stroke-dasharray="2 3" opacity="0.55"/>
<line x1="721.5" y1="92" x2="721.5" y2="332" stroke="#2f7d8f" stroke-width="1.4" stroke-dasharray="2 3" opacity="0.55"/>
<line x1="449.0" y1="98" x2="449.0" y2="332" stroke="#b03030" stroke-width="1.3" stroke-dasharray="5 4" opacity="0.8"/>
<text x="455.0" y="104" font-size="11" fill="#b03030">Currier A / B threshold</text>
<line x1="168" y1="348" x2="828" y2="348" stroke="#888" stroke-width="1"/>
<line x1="295.7" y1="348" x2="295.7" y2="353" stroke="#888"/>
<text x="295.7" y="368" font-size="11" fill="#666" text-anchor="middle">0.00</text>
<line x1="402.2" y1="348" x2="402.2" y2="353" stroke="#888"/>
<text x="402.2" y="368" font-size="11" fill="#666" text-anchor="middle">0.25</text>
<line x1="508.6" y1="348" x2="508.6" y2="353" stroke="#888"/>
<text x="508.6" y="368" font-size="11" fill="#666" text-anchor="middle">0.50</text>
<line x1="615.1" y1="348" x2="615.1" y2="353" stroke="#888"/>
<text x="615.1" y="368" font-size="11" fill="#666" text-anchor="middle">0.75</text>
<line x1="721.5" y1="348" x2="721.5" y2="353" stroke="#888"/>
<text x="721.5" y="368" font-size="11" fill="#666" text-anchor="middle">1.00</text>
<text x="498" y="388" font-size="12" fill="#444" text-anchor="middle" font-style="italic">register coordinate  (o-attachment  →  q-gallows + e-cascade)</text>
<line x1="202.1" y1="108.0" x2="466.1" y2="108.0" stroke="#9c5b2e" stroke-width="2" opacity="0.45"/>
<line x1="202.1" y1="104.0" x2="202.1" y2="112.0" stroke="#9c5b2e" stroke-width="2" opacity="0.55"/>
<line x1="466.1" y1="104.0" x2="466.1" y2="112.0" stroke="#9c5b2e" stroke-width="2" opacity="0.55"/>
<circle cx="295.7" cy="108.0" r="7" fill="#9c5b2e" stroke="#9c5b2e" stroke-width="1"/>
<text x="152" y="112.0" font-size="13" fill="#2b2b2b" text-anchor="end">Herbal-A</text>
<text x="295.7" y="97.0" font-size="10.5" fill="#555" text-anchor="middle">+0.00  (n=83)</text>
<line x1="325.5" y1="150.4" x2="593.8" y2="150.4" stroke="#9c5b2e" stroke-width="2" opacity="0.45"/>
<line x1="325.5" y1="146.4" x2="325.5" y2="154.4" stroke="#9c5b2e" stroke-width="2" opacity="0.55"/>
<line x1="593.8" y1="146.4" x2="593.8" y2="154.4" stroke="#9c5b2e" stroke-width="2" opacity="0.55"/>
<circle cx="436.3" cy="150.4" r="6" fill="#9c5b2e" stroke="#b03030" stroke-width="2.2"/>
<text x="152" y="154.4" font-size="13" fill="#2b2b2b" text-anchor="end">Pharma-A</text>
<text x="436.3" y="139.4" font-size="10.5" fill="#555" text-anchor="middle">+0.33  (n=16)</text>
<line x1="415.0" y1="192.8" x2="517.2" y2="192.8" stroke="#2f7d8f" stroke-width="2" opacity="0.45"/>
<line x1="415.0" y1="188.8" x2="415.0" y2="196.8" stroke="#2f7d8f" stroke-width="2" opacity="0.55"/>
<line x1="517.2" y1="188.8" x2="517.2" y2="196.8" stroke="#2f7d8f" stroke-width="2" opacity="0.55"/>
<circle cx="461.8" cy="192.8" r="6" fill="#2f7d8f" stroke="#2f7d8f" stroke-width="1"/>
<text x="152" y="196.8" font-size="13" fill="#2b2b2b" text-anchor="end">Cosmo-B</text>
<text x="461.8" y="181.8" font-size="10.5" fill="#555" text-anchor="middle">+0.39  (n=4)</text>
<line x1="300.0" y1="235.2" x2="581.0" y2="235.2" stroke="#2f7d8f" stroke-width="2" opacity="0.45"/>
<line x1="300.0" y1="231.2" x2="300.0" y2="239.2" stroke="#2f7d8f" stroke-width="2" opacity="0.55"/>
<line x1="581.0" y1="231.2" x2="581.0" y2="239.2" stroke="#2f7d8f" stroke-width="2" opacity="0.55"/>
<circle cx="474.6" cy="235.2" r="6" fill="#2f7d8f" stroke="#2f7d8f" stroke-width="1"/>
<text x="152" y="239.2" font-size="13" fill="#2b2b2b" text-anchor="end">Herbal-B</text>
<text x="474.6" y="224.2" font-size="10.5" fill="#555" text-anchor="middle">+0.42  (n=32)</text>
<line x1="415.0" y1="277.6" x2="674.7" y2="277.6" stroke="#2f7d8f" stroke-width="2" opacity="0.45"/>
<line x1="415.0" y1="273.6" x2="415.0" y2="281.6" stroke="#2f7d8f" stroke-width="2" opacity="0.55"/>
<line x1="674.7" y1="273.6" x2="674.7" y2="281.6" stroke="#2f7d8f" stroke-width="2" opacity="0.55"/>
<circle cx="542.7" cy="277.6" r="6" fill="#2f7d8f" stroke="#2f7d8f" stroke-width="1"/>
<text x="152" y="281.6" font-size="13" fill="#2b2b2b" text-anchor="end">Stars-B</text>
<text x="542.7" y="266.6" font-size="10.5" fill="#555" text-anchor="middle">+0.58  (n=23)</text>
<line x1="636.4" y1="320.0" x2="789.7" y2="320.0" stroke="#2f7d8f" stroke-width="2" opacity="0.45"/>
<line x1="636.4" y1="316.0" x2="636.4" y2="324.0" stroke="#2f7d8f" stroke-width="2" opacity="0.55"/>
<line x1="789.7" y1="316.0" x2="789.7" y2="324.0" stroke="#2f7d8f" stroke-width="2" opacity="0.55"/>
<circle cx="725.8" cy="320.0" r="7" fill="#2f7d8f" stroke="#2f7d8f" stroke-width="1"/>
<text x="152" y="324.0" font-size="13" fill="#2b2b2b" text-anchor="end">Bio-B</text>
<text x="725.8" y="309.0" font-size="10.5" fill="#555" text-anchor="middle">+1.01  (n=19)</text>
<text x="295.7" y="86" font-size="11" fill="#9c5b2e" text-anchor="middle" font-weight="bold">Herbal-A pole</text>
<text x="721.5" y="86" font-size="11" fill="#2f7d8f" text-anchor="middle" font-weight="bold">Biological-B pole</text>
<text x="436.3" y="172.4" font-size="10.5" fill="#b03030" text-anchor="middle" font-style="italic">Currier-A, yet mid-gradient</text>
<text x="40" y="428" font-size="12" fill="#5a5a5a">Individual scribes traverse the axis by content — penmanship explains ~1% of the variance (unique R²: section 0.235 vs scribe 0.010).</text>
<text x="40" y="446" font-size="12" fill="#5a5a5a">The interior is a two-pole blend (one mixing parameter, ±0.08 bits); the Biological pole’s extremity is a word-repetition / self-copying effect.</text>
</svg>